<?xml version="1.0" encoding="UTF-8"?>
<svg version="1.1" xmlns="http://www.w3.org/2000/svg" width="800" height="800">
<path d="M0 0 C264 0 528 0 800 0 C800 264 800 528 800 800 C536 800 272 800 0 800 C0 536 0 272 0 0 Z " fill="#FEFEFE" transform="translate(0,0)"/>
<path d="M0 0 C1.15540283 0.00563965 2.31080566 0.0112793 3.5012207 0.01708984 C28.30130905 0.36980532 50.76031163 10.81307372 68.3125 28.3125 C82.37796116 44.06667154 89.21694663 63.28411583 88.3125 84.3125 C88.168125 85.5190625 88.02375 86.725625 87.875 87.96875 C86.763566 96.5901304 86.763566 96.5901304 90.0625 104.3125 C91.143943 105.647367 92.22712998 106.98082406 93.3125 108.3125 C97.85363452 116.74358749 98.65479233 126.09643749 96.1875 135.3125 C93.12637289 144.38197892 88.24213933 151.83727285 80.3125 157.3125 C78.83668268 157.94536828 77.35741975 158.57025554 75.875 159.1875 C70.26383413 162.08451703 68.36004154 167.23465736 65.68554688 172.66186523 C61.11573751 181.92127316 55.5506483 189.39421896 47.75 196.25 C44.78361273 199.09240514 43.46448859 200.55702728 42.6484375 204.61328125 C42.61207714 209.96431415 43.3911246 215.05199773 44.3125 220.3125 C45.32280273 220.50042114 45.32280273 220.50042114 46.35351562 220.69213867 C59.6021682 223.18134104 72.61862701 225.70712013 85.3125 230.3125 C86.05081055 230.57820801 86.78912109 230.84391602 87.54980469 231.11767578 C111.27687452 239.75511846 129.07598195 251.53745781 140.1875 274.75 C150.15124456 296.86347083 149.3125 319.13510245 149.3125 343.3125 C167.7925 343.3125 186.2725 343.3125 205.3125 343.3125 C205.3125 265.7625 205.3125 188.2125 205.3125 108.3125 C175.9425 108.3125 146.5725 108.3125 116.3125 108.3125 C110.3125 104.3125 110.3125 104.3125 109.3125 102.3125 C108.79678319 97.93313431 108.47908723 94.46203485 111.125 90.8125 C114.25782795 88.66427512 116.76956123 88.18685128 120.47396851 88.16532898 C121.32069626 88.15817368 122.16742401 88.15101837 123.03981018 88.14364624 C124.42848549 88.13961288 124.42848549 88.13961288 125.84521484 88.13549805 C126.82273209 88.12892685 127.80024933 88.12235565 128.80738831 88.11558533 C132.04607212 88.09585476 135.28470963 88.08419156 138.5234375 88.07421875 C140.18138273 88.06810546 140.18138273 88.06810546 141.87282181 88.06186867 C147.72055118 88.04101112 153.5682571 88.02670679 159.41601562 88.01733398 C165.4611711 88.00625725 171.50595974 87.97184159 177.55098534 87.93216228 C182.19551284 87.9060459 186.83995218 87.89764667 191.48454666 87.89405251 C193.7133088 87.88917537 195.94206672 87.87752951 198.17075729 87.85901451 C201.2878017 87.83472465 204.40388646 87.8355695 207.52099609 87.8425293 C208.44273117 87.82971924 209.36446625 87.81690918 210.31413269 87.80371094 C214.41045407 87.83708165 216.71965717 87.95933643 220.29946899 90.09187317 C223.4184709 93.53252525 224.5613793 96.17848972 224.56976891 100.81721306 C224.5762178 101.72019312 224.58266669 102.62317318 224.589311 103.55351627 C224.5846652 105.03569713 224.5846652 105.03569713 224.57992554 106.54782104 C224.58445665 107.60056186 224.58898776 108.65330267 224.59365618 109.73794472 C224.60634941 113.27700085 224.60467663 116.81590405 224.60302734 120.35498047 C224.60900949 122.88767699 224.61581431 125.42037169 224.62338257 127.95306396 C224.63924156 134.1254844 224.64549231 140.29784852 224.64660732 146.47028743 C224.64755756 151.48730902 224.6516666 156.504318 224.65800858 161.5213356 C224.67562203 175.74439776 224.68484725 189.96742973 224.68334763 204.19050287 C224.68326772 204.95730977 224.6831878 205.72411668 224.68310547 206.51416016 C224.68302371 207.2819029 224.68294195 208.04964564 224.68285771 208.84065332 C224.68204472 221.28446106 224.70118538 233.72814779 224.7293822 246.17192052 C224.75810369 258.94800497 224.77192291 271.72403038 224.77019465 284.50014794 C224.7695305 291.67342814 224.77503345 298.84658147 224.79655075 306.01983261 C224.81665463 312.76513481 224.81609643 319.51012436 224.80151749 326.25545502 C224.79942127 328.73305527 224.80417835 331.21067208 224.8162384 333.68824387 C224.83162113 337.06688454 224.82242796 340.44459181 224.80697632 343.82321167 C224.81726344 344.8068708 224.82755057 345.79052994 224.83814943 346.80399692 C224.78125307 352.42210005 224.2970251 355.99996298 220.3125 360.3125 C216.18215333 362.46387455 212.60956862 362.56477503 207.99575806 362.56976891 C207.26548613 362.57327498 206.53521421 362.57678105 205.78281283 362.58039337 C203.32860303 362.58971896 200.87462991 362.58478112 198.42041016 362.57992554 C196.64599222 362.5836612 194.87157592 362.58826238 193.09716225 362.59365618 C188.21541651 362.60591166 183.33373917 362.60562273 178.45198154 362.60326743 C173.18947348 362.60285992 167.92698755 362.61389202 162.66448975 362.62338257 C152.35296612 362.64000662 142.04146535 362.64549272 131.72992945 362.64660732 C123.35146413 362.64755697 114.97300638 362.65166304 106.59454346 362.65800858 C82.85427147 362.67562344 59.11401758 362.68484686 35.373739 362.68334763 C34.09347154 362.68326772 32.81320407 362.6831878 31.49414062 362.68310547 C30.21231533 362.68302371 28.93049004 362.68294195 27.60982156 362.68285771 C6.82360359 362.68204434 -13.96254199 362.70119412 -34.748739 362.7293822 C-56.07791067 362.7580791 -77.407047 362.77192432 -98.73623848 362.77019465 C-110.71666647 362.76952973 -122.69701855 362.77506689 -134.6774292 362.79655075 C-144.87517631 362.81472037 -155.07281308 362.81914457 -165.27056932 362.8055319 C-170.47623574 362.79898138 -175.6816902 362.79896 -180.88733673 362.8162384 C-185.64928424 362.83188202 -190.4108502 362.8291953 -195.1727879 362.81167014 C-196.89882802 362.80858097 -198.624896 362.81230412 -200.35090327 362.82339029 C-202.69132167 362.83743163 -205.03038686 362.82698956 -207.37075806 362.81027794 C-209.32320151 362.81093004 -209.32320151 362.81093004 -211.31508827 362.81159532 C-215.298637 362.22205564 -216.89557251 361.17035233 -219.6875 358.3125 C-221.58251449 355.43515347 -221.93859647 353.22060845 -221.94476891 349.80778694 C-221.9512178 348.90480688 -221.95766669 348.00182682 -221.964311 347.07148373 C-221.9612138 346.08336316 -221.9581166 345.09524258 -221.95492554 344.07717896 C-221.95945665 343.02443814 -221.96398776 341.97169733 -221.96865618 340.88705528 C-221.98134941 337.34799915 -221.97967663 333.80909595 -221.97802734 330.27001953 C-221.98400949 327.73732301 -221.99081431 325.20462831 -221.99838257 322.67193604 C-222.01424156 316.4995156 -222.02049231 310.32715148 -222.02160732 304.15471257 C-222.02255756 299.13769098 -222.0266666 294.120682 -222.03300858 289.1036644 C-222.05062203 274.88060224 -222.05984725 260.65757027 -222.05834763 246.43449713 C-222.05826772 245.66769023 -222.0581878 244.90088332 -222.05810547 244.11083984 C-222.05802371 243.3430971 -222.05794195 242.57535436 -222.05785771 241.78434668 C-222.05704472 229.34053894 -222.07618538 216.89685221 -222.1043822 204.45307948 C-222.13310369 191.67699503 -222.14692291 178.90096962 -222.14519465 166.12485206 C-222.1445305 158.95157186 -222.15003345 151.77841853 -222.17155075 144.60516739 C-222.19165463 137.85986519 -222.19109643 131.11487564 -222.17651749 124.36954498 C-222.17442127 121.89194473 -222.17917835 119.41432792 -222.1912384 116.93675613 C-222.20662113 113.55811546 -222.19742796 110.18040819 -222.18197632 106.80178833 C-222.19226344 105.8181292 -222.20255057 104.83447006 -222.21314943 103.82100308 C-222.15578363 98.15654629 -221.56609411 94.75370237 -217.6875 90.3125 C-214.6254806 88.27115373 -214.01680197 88.06153613 -210.57072449 88.05180359 C-209.31542183 88.04117638 -209.31542183 88.04117638 -208.03475952 88.03033447 C-206.66246689 88.0340506 -206.66246689 88.0340506 -205.26245117 88.0378418 C-204.29629379 88.03273087 -203.33013641 88.02761993 -202.33470154 88.02235413 C-199.13322799 88.0084275 -195.93196904 88.00941752 -192.73046875 88.01171875 C-190.50710469 88.00783289 -188.28374138 88.00349845 -186.06037903 87.99873352 C-181.39561561 87.99126425 -176.73092785 87.99156727 -172.06616211 87.99682617 C-166.09065233 88.00261512 -160.11545307 87.98570695 -154.13999462 87.9624815 C-149.54602753 87.94774119 -144.95213512 87.94687299 -140.35814857 87.94999123 C-138.15535175 87.94947795 -135.95255075 87.944239 -133.74977684 87.93417931 C-130.66655777 87.92182971 -127.58394199 87.92859856 -124.50073242 87.94018555 C-123.59194336 87.93254181 -122.6831543 87.92489807 -121.74682617 87.91702271 C-116.64311357 87.95937199 -113.10352495 88.46443543 -108.6875 91.3125 C-106.05245743 94.37254944 -105.67867349 95.80938882 -105.75 99.875 C-106.76694084 103.60378308 -107.65318455 104.99214113 -110.6875 107.3125 C-139.78217305 117.01072435 -172.01902179 108.3125 -202.6875 108.3125 C-202.6875 185.8625 -202.6875 263.4125 -202.6875 343.3125 C-184.2075 343.3125 -165.7275 343.3125 -146.6875 343.3125 C-146.6875 334.0725 -146.6875 324.8325 -146.6875 315.3125 C-144.43231222 287.55634267 -135.68162863 263.88919408 -114.32421875 245.25 C-98.68381475 233.47369581 -77.09436475 227.95058627 -58.375 223.375 C-57.52204346 223.16343262 -56.66908691 222.95186523 -55.7902832 222.73388672 C-50.6300898 221.53336652 -45.98429295 221.11135596 -40.6875 221.3125 C-39.22146727 209.2626468 -39.22146727 209.2626468 -42.66796875 198.109375 C-45.24267647 195.69436927 -47.92972771 193.51384401 -50.6875 191.3125 C-56.85595492 184.12670074 -61.2015239 175.3572458 -65.74609375 167.09375 C-66.12048584 166.41376953 -66.49487793 165.73378906 -66.88061523 165.03320312 C-67.6875 163.3125 -67.6875 163.3125 -67.6875 161.3125 C-68.96625 161.003125 -70.245 160.69375 -71.5625 160.375 C-79.81208499 157.6164637 -86.55518293 150.86429683 -90.7265625 143.3203125 C-95.47863804 133.39117905 -96.58759983 122.97737837 -93 112.375 C-91.70999271 109.02522798 -90.55773348 107.17582283 -88.046875 104.53125 C-83.83078888 98.77468583 -85.34181281 90.53994069 -85.625 83.75 C-86.49930524 61.89713366 -80.6219121 43.66358962 -65.65625 27.3125 C-53.76352741 14.97813785 -38.17061371 6.7342649 -21.6875 2.3125 C-20.74596069 2.0486853 -20.74596069 2.0486853 -19.78540039 1.77954102 C-13.19630954 0.09882588 -6.77523981 -0.03443453 0 0 Z " fill="#3A3A3A" transform="translate(398.6875,153.6875)"/>
<path d="M0 0 C1.17142044 -0.0115361 2.34284088 -0.0230722 3.54975891 -0.03495789 C7.4166498 -0.06921105 11.28338152 -0.08775192 15.15039062 -0.10327148 C16.48569329 -0.11005995 17.82099503 -0.11703349 19.15629578 -0.12418938 C25.42682374 -0.15686187 31.69730217 -0.18078292 37.96790361 -0.19300324 C45.19416065 -0.20727251 52.41944346 -0.25120991 59.64537764 -0.32050472 C65.24131344 -0.37231092 70.83697217 -0.39717786 76.43314409 -0.40182537 C79.77170604 -0.40521964 83.10849584 -0.42344194 86.44694519 -0.46310616 C90.16983512 -0.50443614 93.8902419 -0.50174031 97.61328125 -0.48828125 C99.26394341 -0.52131851 99.26394341 -0.52131851 100.94795227 -0.55502319 C108.19664772 -0.4658971 108.19664772 -0.4658971 111.35551453 1.82225227 C114.2937166 5.04637919 115.28014933 6.55664171 115.43164062 11.02563477 C114.23294888 14.55511603 113.24336025 16.092408 110.30664062 18.33813477 C107.41330609 19.30257961 105.58952512 19.46496169 102.58244324 19.46943665 C101.12520088 19.47544891 101.12520088 19.47544891 99.63851929 19.48158264 C98.04180893 19.48078957 98.04180893 19.48078957 96.4128418 19.47998047 C95.29062729 19.4834549 94.16841278 19.48692932 93.01219177 19.49050903 C90.57150456 19.49786878 88.13081065 19.50321299 85.69011497 19.5067997 C81.82780377 19.51395642 77.96562026 19.52961694 74.10334778 19.54814148 C63.1205936 19.60065024 52.13790711 19.64903121 41.1550293 19.6640625 C34.44059364 19.6733463 27.72652444 19.70344556 21.01220131 19.74538231 C18.45217626 19.75770585 15.89210597 19.76281112 13.33205223 19.76058388 C9.75056042 19.75823464 6.16999042 19.78037058 2.58862305 19.80810547 C1.00102173 19.79820335 1.00102173 19.79820335 -0.61865234 19.7881012 C-6.44722797 19.86225633 -10.2073062 20.21894056 -14.69335938 24.33813477 C-17.17316289 27.86078731 -18.06896975 30.24964693 -18.07812023 34.54488087 C-18.08757734 35.57927736 -18.09703445 36.61367386 -18.10677814 37.6794157 C-18.10193 38.80846734 -18.09708185 39.93751898 -18.09208679 41.1007843 C-18.09872849 42.30271423 -18.10537018 43.50464417 -18.11221313 44.74299622 C-18.1276512 48.08253343 -18.12965094 51.42159561 -18.12607633 54.76113476 C-18.12548697 58.41636741 -18.14227461 62.07152771 -18.15686512 65.72672558 C-18.18258739 72.8227131 -18.1929467 79.91864032 -18.1979477 87.0146694 C-18.20439428 95.22227708 -18.22993343 103.42975214 -18.25549316 111.6373291 C-18.31354002 133.30839354 -18.34560547 154.97952126 -18.38085938 176.65063477 C-18.48398438 225.05750977 -18.58710938 273.46438477 -18.69335938 323.33813477 C138.38664063 323.33813477 295.46664063 323.33813477 457.30664062 323.33813477 C457.22414063 274.95188477 457.14164063 226.56563477 457.05664062 176.71313477 C457.04084961 161.4188916 457.02505859 146.12464844 457.00878906 130.36694336 C456.97558099 116.69147532 456.97558099 116.69147532 456.93707275 103.01602173 C456.92002508 96.91125672 456.91388273 90.80659891 456.9151001 84.70181274 C456.91646616 77.66383015 456.90408213 70.62603312 456.87460174 63.58810959 C456.85995121 59.98669581 456.85154879 56.38557113 456.86081648 52.78413272 C456.87059587 48.92957678 456.84965006 45.07554044 456.82562256 41.22103882 C456.83726377 39.53183036 456.83726377 39.53183036 456.84914017 37.80849648 C456.78132053 31.66877608 456.42790991 28.00422143 452.30664062 23.33813477 C447.68804687 19.17624089 442.02908267 19.91214124 436.15405273 19.9375 C435.02833359 19.93052094 433.90261444 19.92354187 432.74278259 19.91635132 C429.02310719 19.8963614 425.30370874 19.89687472 421.58398438 19.89672852 C418.99995676 19.88495972 416.41593595 19.87159673 413.83192444 19.85670471 C406.33285696 19.81678689 398.83384304 19.79713339 391.33469391 19.78053284 C381.13790343 19.75664222 370.94124558 19.71709356 360.74456978 19.66325569 C356.93555229 19.64689631 353.12666003 19.64314623 349.31761169 19.64024353 C346.98835024 19.63046956 344.65909076 19.62020667 342.32983398 19.609375 C340.73615997 19.61320442 340.73615997 19.61320442 339.11029053 19.61711121 C338.1359758 19.6102832 337.16166107 19.6034552 336.15782166 19.59642029 C335.31257903 19.59478599 334.46733641 19.59315168 333.59648037 19.59146786 C331.05447889 19.31023722 329.4706177 18.68537521 327.30664062 17.33813477 C325.19094878 14.61795954 324.3675291 12.75565573 323.86914062 9.33813477 C324.41224393 5.61399784 325.7115088 4.009594 328.30664062 1.33813477 C330.72790317 0.12750349 332.27799261 0.20176623 334.98410034 0.18423462 C335.97079208 0.17563416 336.95748383 0.16703369 337.97407532 0.15817261 C339.06077011 0.15391266 340.1474649 0.14965271 341.26708984 0.14526367 C342.40878128 0.13708618 343.55047272 0.12890869 344.72676086 0.1204834 C348.52161125 0.095586 352.31642397 0.07909728 356.11132812 0.06469727 C358.05542257 0.05671175 358.05542257 0.05671175 360.03879166 0.04856491 C365.49124746 0.0273201 370.94369102 0.00819369 376.39617729 -0.00305748 C384.19008487 -0.01924813 391.98349 -0.05229111 399.77720821 -0.10945833 C405.26613783 -0.14833236 410.75493415 -0.16771133 416.24399769 -0.17297804 C419.51648885 -0.17661123 422.78832566 -0.19095909 426.06069565 -0.22108078 C429.72492732 -0.25286979 433.38791146 -0.25274689 437.05224609 -0.24536133 C438.65192482 -0.26996933 438.65192482 -0.26996933 440.28392029 -0.29507446 C449.12927126 -0.2225741 457.51650851 2.21106407 464.68164062 7.58813477 C474.5243188 17.8995119 476.76141985 27.9155683 476.69432068 41.8744812 C476.69849916 43.23559766 476.70397949 44.59671063 476.71064049 45.9578172 C476.72504654 49.67883578 476.72086564 53.39963195 476.71347368 57.12066245 C476.70873225 61.14122306 476.72126048 65.16173622 476.73149109 69.18228149 C476.74866552 77.05150989 476.74952189 84.92065838 476.74427819 92.78990065 C476.74023262 99.18786481 476.74168463 105.58580542 476.74702644 111.98376846 C476.74777487 112.89524231 476.74852329 113.80671616 476.74929439 114.74581043 C476.75082591 116.59762358 476.75236425 118.44943673 476.75390936 120.30124988 C476.76762957 137.65768232 476.76220014 155.01406965 476.75072414 172.37050106 C476.74079292 188.23786499 476.75373138 204.10511229 476.77765834 219.97245823 C476.80205984 236.27775733 476.81165458 252.58300214 476.80500561 268.88831913 C476.80151564 278.03742624 476.80373072 287.18644368 476.82125664 296.33553696 C476.83599178 304.12416639 476.83659695 311.91264301 476.81918573 319.70126949 C476.81068401 323.67231302 476.80850568 327.64308369 476.82383728 331.61411285 C476.83771945 335.25490627 476.83287661 338.895194 476.81359804 342.53595842 C476.80808285 344.46500389 476.82208015 346.39407534 476.83695215 348.32307136 C476.7451501 359.2285384 474.23243506 368.94784813 466.66210938 377.11157227 C457.11976745 386.3235276 446.09754667 386.92094119 433.4621582 386.79223633 C431.89405344 386.79110579 430.32594656 386.79174572 428.75784302 386.79400635 C424.5332333 386.7951464 420.30908485 386.77175309 416.08458161 386.74371052 C411.65770494 386.71857765 407.2308158 386.71634555 402.80387878 386.71160889 C394.4353509 386.69921384 386.0670339 386.66643961 377.69859856 386.62621093 C368.16530199 386.5813847 358.63199495 386.55947898 349.0986191 386.53942919 C329.50117558 386.49770361 309.90392143 386.42741959 290.30664062 386.33813477 C292.68992586 390.4139255 295.07439572 394.48901989 297.45996094 398.56347656 C298.27115873 399.94935385 299.0820338 401.33542011 299.89257812 402.72167969 C301.05839382 404.71542455 302.22537248 406.70848464 303.39257812 408.70141602 C303.7541098 409.32027176 304.11564148 409.9391275 304.48812866 410.57673645 C306.0339276 413.2138289 307.61034155 415.79368615 309.30664062 418.33813477 C311.54434296 418.79758144 311.54434296 418.79758144 314.13867188 418.74438477 C315.10224609 418.76629883 316.06582031 418.78821289 317.05859375 418.81079102 C318.06857422 418.81981445 319.07855469 418.82883789 320.11914062 418.83813477 C332.92235724 418.95385138 332.92235724 418.95385138 338.30664062 424.33813477 C338.98845881 431.26995295 338.98845881 431.26995295 336.43164062 435.27563477 C332.48428729 439.10688947 328.70838674 438.48640824 323.48197937 438.48530579 C322.55683196 438.48898247 321.63168456 438.49265916 320.67850238 438.49644727 C317.55934438 438.50751466 314.44021965 438.51133309 311.32104492 438.51513672 C309.09243666 438.521399 306.86382945 438.52804559 304.63522339 438.53504944 C298.56702145 438.55247968 292.49882739 438.56301645 286.4306066 438.57125497 C282.64249073 438.57640022 278.85437733 438.58247612 275.0662632 438.5887661 C264.58086702 438.60563788 254.09547198 438.62027333 243.61006451 438.62751484 C240.88856187 438.62942477 238.16705924 438.6313451 235.44555664 438.63330078 C234.43091614 438.63402639 234.43091614 438.63402639 233.39577786 438.63476666 C222.43523499 438.64306904 211.4748012 438.66840931 200.51430597 438.70088146 C189.26494558 438.7339381 178.01563859 438.75162942 166.76622325 438.75515908 C160.44862104 438.75751415 154.13119119 438.76653409 147.81363487 438.79162025 C141.87191217 438.81483251 135.93047616 438.81916175 129.98871994 438.80885887 C127.80579362 438.80836175 125.62285352 438.81473374 123.43997002 438.82841492 C120.46371718 438.84602744 117.48850516 438.83907998 114.51225281 438.82588196 C113.21127758 438.84233583 113.21127758 438.84233583 111.88402003 438.8591221 C107.82217995 438.8155245 105.80679255 438.65445697 102.29378986 436.43265057 C99.71292149 433.71233672 99.35131864 432.81172173 98.99414062 429.02563477 C99.35645194 424.7503613 100.26810355 423.2898565 103.30664062 420.33813477 C106.42390668 419.29904608 108.05541874 419.35853704 111.27929688 419.61938477 C121.77128205 420.47504089 121.77128205 420.47504089 131.21923828 416.8684082 C134.31767418 413.07909808 136.12651006 408.77141671 137.94526672 404.26583862 C139.68979289 400.51414632 141.79414584 397.04477986 143.94775391 393.51635742 C144.5763607 392.47805534 144.5763607 392.47805534 145.21766663 391.41877747 C146.24453813 389.72353888 147.27520702 388.03060151 148.30664062 386.33813477 C147.49549333 386.34090014 146.68434603 386.34366552 145.84861851 386.3465147 C126.09239294 386.41282861 106.33618661 386.46244166 86.57987309 386.49357128 C77.02578288 386.50902628 67.47176706 386.53008963 57.91772461 386.56445312 C49.58837487 386.59439737 41.25907902 386.61371971 32.92967695 386.62040025 C28.52117104 386.624304 24.11281928 386.63344979 19.70436287 386.65532494 C15.55033123 386.67576955 11.39651645 386.68195253 7.24243927 386.67745781 C5.72234097 386.67827946 4.20223502 386.6841975 2.6821804 386.69575119 C-9.99942766 386.78736983 -19.33338165 385.43370634 -28.69335938 376.33813477 C-36.78424278 366.67843083 -38.13996963 357.06142282 -38.08103943 344.75709534 C-38.08521786 343.3911414 -38.09069817 342.02519094 -38.09735924 340.65924686 C-38.11176576 336.92489635 -38.10758426 333.19076744 -38.10019243 329.45640504 C-38.09545116 325.42154857 -38.10797903 321.38673938 -38.11820984 317.35189819 C-38.13538412 309.4549314 -38.13624074 301.55804423 -38.13099694 293.66106362 C-38.12695163 287.24116106 -38.12840307 280.82128198 -38.13374519 274.40138054 C-38.13449362 273.48684261 -38.13524204 272.57230467 -38.13601314 271.63005347 C-38.13754465 269.77203758 -38.139083 267.9140217 -38.14062811 266.05600583 C-38.15434806 248.64189969 -38.14891889 231.2278385 -38.13744289 213.81373339 C-38.12750991 197.89072859 -38.1404532 181.96783998 -38.16437709 166.0448531 C-38.18877288 149.68418826 -38.19837484 133.32357752 -38.19172436 116.96289486 C-38.18823335 107.78196167 -38.19045645 98.60111785 -38.20797539 89.42019844 C-38.22270331 81.60519016 -38.22332504 73.79033418 -38.20590448 65.97532887 C-38.19739716 61.9902327 -38.19523823 58.00540854 -38.21055603 54.02032661 C-38.22442122 50.36786654 -38.21961702 46.71591103 -38.20031679 43.06348001 C-38.19479174 41.12574224 -38.20881303 39.18797866 -38.2236709 37.25028998 C-38.13287341 26.45035099 -35.35918367 17.2159925 -27.69335938 9.33813477 C-18.67427146 1.89077716 -11.51471248 0.0398329 0 0 Z " fill="#3A3A3A" transform="translate(180.693359375,207.661865234375)"/>
<path d="M0 0 C0.83686844 -0.00708481 1.67373688 -0.01416962 2.53596497 -0.02146912 C3.9082576 -0.01775299 3.9082576 -0.01775299 5.30827332 -0.01396179 C6.27443069 -0.01907272 7.24058807 -0.02418365 8.23602295 -0.02944946 C11.4374965 -0.04337609 14.63875545 -0.04238607 17.84025574 -0.04008484 C20.0636198 -0.0439707 22.28698311 -0.04830514 24.51034546 -0.05307007 C29.17510888 -0.06053934 33.83979664 -0.06023632 38.50456238 -0.05497742 C44.48007216 -0.04918847 50.45527141 -0.06609664 56.43072987 -0.08932209 C61.02469695 -0.10406239 65.61858937 -0.1049306 70.21257591 -0.10181236 C72.41537274 -0.10232564 74.61817373 -0.10756459 76.82094765 -0.11762428 C79.90416671 -0.12997387 82.9867825 -0.12320503 86.06999207 -0.11161804 C86.97878113 -0.11926178 87.88757019 -0.12690552 88.82389832 -0.13478088 C93.92761092 -0.09243159 97.46719954 0.41263184 101.88322449 3.26069641 C104.51826706 6.32074585 104.892051 7.75758524 104.82072449 11.82319641 C103.80378365 15.5519795 102.91753993 16.94033754 99.88322449 19.26069641 C70.78855144 28.95892076 38.55170269 20.26069641 7.88322449 20.26069641 C7.88322449 97.81069641 7.88322449 175.36069641 7.88322449 255.26069641 C26.36322449 255.26069641 44.84322449 255.26069641 63.88322449 255.26069641 C63.88322449 246.02069641 63.88322449 236.78069641 63.88322449 227.26069641 C65.82888052 203.31416064 71.89235944 182.06065027 88.88322449 164.26069641 C89.54322449 164.26069641 90.20322449 164.26069641 90.88322449 164.26069641 C92.03149299 166.55723341 91.99883624 167.84382808 91.98088074 170.39350891 C91.97604675 171.602005 91.97604675 171.602005 91.97111511 172.83491516 C91.95854675 174.09755188 91.95854675 174.09755188 91.94572449 175.38569641 C91.94121277 176.2351886 91.93670105 177.08468079 91.93205261 177.95991516 C91.92025323 180.0602055 91.90231755 182.16045971 91.88322449 184.26069641 C92.54322449 184.26069641 93.20322449 184.26069641 93.88322449 184.26069641 C93.88322449 184.92069641 93.88322449 185.58069641 93.88322449 186.26069641 C94.54322449 186.26069641 95.20322449 186.26069641 95.88322449 186.26069641 C94.88029379 188.82117386 93.84428525 191.34577158 92.69963074 193.84663391 C85.90315289 208.96403323 84.80947894 224.91894019 84.32072449 241.26069641 C84.17634949 245.88069641 84.03197449 250.50069641 83.88322449 255.26069641 C93.45322449 255.26069641 103.02322449 255.26069641 112.88322449 255.26069641 C112.82521667 252.28682922 112.76720886 249.31296204 112.70744324 246.24897766 C112.66842962 243.36301845 112.63808103 240.47708881 112.60856628 237.59101868 C112.58344899 235.58795485 112.54934854 233.58498243 112.50602722 231.58222961 C112.4452526 228.70008275 112.41698717 225.8191492 112.39494324 222.93647766 C112.36913681 222.04358536 112.34333038 221.15069305 112.31674194 220.23074341 C112.31471058 215.70981912 112.39642672 213.87634514 115.28874207 210.21846008 C119.07821957 207.35896821 121.11491628 206.79321521 125.88322449 207.26069641 C128.5831311 209.06063416 130.42511099 210.34446941 131.88322449 213.26069641 C131.88322449 227.12069641 131.88322449 240.98069641 131.88322449 255.26069641 C184.68322449 255.26069641 237.48322449 255.26069641 291.88322449 255.26069641 C291.88322449 241.07069641 291.88322449 226.88069641 291.88322449 212.26069641 C297.88322449 207.26069641 297.88322449 207.26069641 300.88322449 206.63569641 C305.08299978 207.5106496 306.82190456 209.27056997 309.88322449 212.26069641 C311.60124831 215.69674406 311.00288629 219.64508537 310.98088074 223.42475891 C310.97875832 224.78557083 310.97875832 224.78557083 310.97659302 226.1738739 C310.97098544 229.07784797 310.95843167 231.98174556 310.94572449 234.88569641 C310.94071046 236.85184113 310.93614739 238.81798706 310.93205261 240.78413391 C310.92186348 245.60970807 310.90228955 250.43511641 310.88322449 255.26069641 C320.45322449 255.26069641 330.02322449 255.26069641 339.88322449 255.26069641 C339.68741766 249.83736263 339.48084779 244.41644184 339.24845886 238.99482727 C339.17275237 237.15750129 339.10290924 235.31992255 339.03947449 233.48213196 C338.51861721 218.56852324 337.13158755 204.88280449 329.63322449 191.63569641 C325.34664159 183.92896759 325.34664159 183.92896759 325.88322449 179.26069641 C326.54322449 179.26069641 327.20322449 179.26069641 327.88322449 179.26069641 C329.23709384 180.91072469 330.57000591 182.57813511 331.88322449 184.26069641 C334.58505504 185.61161169 337.00130655 185.59927699 340.00822449 185.82319641 C341.10392761 185.90698547 342.19963074 185.99077454 343.32853699 186.07710266 C344.17158386 186.1376886 345.01463074 186.19827454 345.88322449 186.26069641 C346.54322449 184.94069641 347.20322449 183.62069641 347.88322449 182.26069641 C360.89830859 205.55769696 359.88322449 228.70513908 359.88322449 255.26069641 C378.36322449 255.26069641 396.84322449 255.26069641 415.88322449 255.26069641 C415.88322449 177.71069641 415.88322449 100.16069641 415.88322449 20.26069641 C386.51322449 20.26069641 357.14322449 20.26069641 326.88322449 20.26069641 C320.88322449 16.26069641 320.88322449 16.26069641 319.88322449 14.26069641 C319.36750768 9.88133072 319.04981172 6.41023126 321.69572449 2.76069641 C324.82855243 0.61247153 327.34028572 0.1350477 331.04469299 0.11352539 C331.89142075 0.10637009 332.7381485 0.09921478 333.61053467 0.09184265 C334.53631821 0.08915375 335.46210175 0.08646484 336.41593933 0.08369446 C337.39345657 0.07712326 338.37097382 0.07055206 339.37811279 0.06378174 C342.61679661 0.04405117 345.85543412 0.03238797 349.09416199 0.02241516 C350.75210722 0.01630187 350.75210722 0.01630187 352.4435463 0.01006508 C358.29127567 -0.01079247 364.13898158 -0.0250968 369.98674011 -0.0344696 C376.03189559 -0.04554634 382.07668422 -0.079962 388.12170982 -0.1196413 C392.76623733 -0.14575768 397.41067666 -0.15415692 402.05527115 -0.15775108 C404.28403329 -0.16262822 406.51279121 -0.17427408 408.74148178 -0.19278908 C411.85852619 -0.21707894 414.97461095 -0.21623409 418.09172058 -0.20927429 C419.01345566 -0.22208435 419.93519073 -0.23489441 420.88485718 -0.24809265 C424.98117856 -0.21472194 427.29038165 -0.09246716 430.87019348 2.04006958 C433.98919539 5.48072166 435.13210378 8.12668613 435.14049339 12.76540947 C435.14694229 13.66838953 435.15339118 14.57136959 435.16003549 15.50171268 C435.15538969 16.98389354 435.15538969 16.98389354 435.15065002 18.49601746 C435.15518114 19.54875827 435.15971225 20.60149908 435.16438067 21.68614113 C435.1770739 25.22519726 435.17540112 28.76410046 435.17375183 32.30317688 C435.17973398 34.8358734 435.18653879 37.3685681 435.19410706 39.90126038 C435.20996604 46.07368081 435.2162168 52.24604493 435.21733181 58.41848384 C435.21828204 63.43550543 435.22239109 68.45251441 435.22873306 73.46953201 C435.24634651 87.69259417 435.25557174 101.91562614 435.25407211 116.13869928 C435.2539922 116.90550618 435.25391229 117.67231309 435.25382996 118.46235657 C435.25374819 119.23009931 435.25366643 119.99784205 435.25358219 120.78884973 C435.2527692 133.23265747 435.27190986 145.6763442 435.30010669 158.12011693 C435.32882818 170.89620138 435.3426474 183.67222679 435.34091914 196.44834435 C435.34025499 203.62162455 435.34575794 210.79477788 435.36727524 217.96802902 C435.38737912 224.71333122 435.38682092 231.45832077 435.37224197 238.20365143 C435.37014575 240.68125168 435.37490284 243.15886849 435.38696289 245.63644028 C435.40234562 249.01508095 435.39315245 252.39278823 435.37770081 255.77140808 C435.38798793 256.75506721 435.39827506 257.73872635 435.40887392 258.75219333 C435.35197756 264.37029647 434.86774958 267.94815939 430.88322449 272.26069641 C426.75287782 274.41207096 423.18029311 274.51297145 418.56648254 274.51796532 C417.83621062 274.52147139 417.1059387 274.52497747 416.35353732 274.52858979 C413.89932751 274.53791537 411.4453544 274.53297753 408.99113464 274.52812195 C407.2167167 274.53185761 405.44230041 274.53645879 403.66788673 274.54185259 C398.78614099 274.55410808 393.90446365 274.55381914 389.02270603 274.55146384 C383.76019797 274.55105633 378.49771203 274.56208844 373.23521423 274.57157898 C362.92369061 274.58820303 352.61218984 274.59368913 342.30065393 274.59480374 C333.92218862 274.59575338 325.54373087 274.59985945 317.16526794 274.60620499 C293.42499596 274.62381985 269.68474206 274.63304327 245.94446349 274.63154404 C244.66419603 274.63146413 243.38392856 274.63138421 242.06486511 274.63130188 C240.78303982 274.63122012 239.50121453 274.63113836 238.18054605 274.63105412 C217.39432808 274.63024075 196.6081825 274.64939053 175.82198548 274.67757861 C154.49281381 274.70627551 133.16367748 274.72012073 111.83448601 274.71839106 C99.85405801 274.71772614 87.87370593 274.7232633 75.89329529 274.74474716 C65.69554818 274.76291678 55.49791141 274.76734098 45.30015516 274.75372832 C40.09448875 274.7471778 34.88903428 274.74715642 29.68338776 274.76443481 C24.92144025 274.78007843 20.15987429 274.77739171 15.39793658 274.75986655 C13.67189647 274.75677738 11.94582849 274.76050053 10.21982121 274.7715867 C7.87940282 274.78562804 5.54033763 274.77518597 3.19996643 274.75847435 C1.24752297 274.75912645 1.24752297 274.75912645 -0.74436378 274.75979173 C-4.72791252 274.17025205 -6.32484802 273.11854874 -9.11677551 270.26069641 C-11.01179001 267.38334989 -11.36787198 265.16880486 -11.37404442 261.75598335 C-11.38049331 260.85300329 -11.3869422 259.95002323 -11.39358652 259.01968014 C-11.39048931 258.03155957 -11.38739211 257.04343899 -11.38420105 256.02537537 C-11.38873216 254.97263455 -11.39326328 253.91989374 -11.39793169 252.83525169 C-11.41062493 249.29619556 -11.40895214 245.75729236 -11.40730286 242.21821594 C-11.413285 239.68551942 -11.42008982 237.15282473 -11.42765808 234.62013245 C-11.44351707 228.44771201 -11.44976783 222.27534789 -11.45088284 216.10290898 C-11.45183307 211.08588739 -11.45594212 206.06887841 -11.46228409 201.05186081 C-11.47989754 186.82879865 -11.48912277 172.60576668 -11.48762314 158.38269354 C-11.48754323 157.61588664 -11.48746332 156.84907973 -11.48738098 156.05903625 C-11.48729922 155.29129351 -11.48721746 154.52355077 -11.48713322 153.7325431 C-11.48632023 141.28873535 -11.50546089 128.84504863 -11.53365771 116.40127589 C-11.5623792 103.62519144 -11.57619843 90.84916603 -11.57447016 78.07304847 C-11.57380602 70.89976827 -11.57930896 63.72661494 -11.60082626 56.5533638 C-11.62093014 49.80806161 -11.62037195 43.06307205 -11.605793 36.31774139 C-11.60369678 33.84014114 -11.60845387 31.36252434 -11.62051392 28.88495255 C-11.63589665 25.50631187 -11.62670347 22.1286046 -11.61125183 18.74998474 C-11.62153896 17.76632561 -11.63182608 16.78266648 -11.64242494 15.76919949 C-11.58505915 10.1047427 -10.99536962 6.70189878 -7.11677551 2.26069641 C-4.05475611 0.21935014 -3.44607748 0.00973254 0 0 Z " fill="#3B3B3B" transform="translate(188.1167755126953,241.7393035888672)"/>
<path d="M0 0 C1.5078125 2.15234375 1.5078125 2.15234375 3.125 4.9375 C6.81809349 10.94462042 11.14218811 15.91502424 16 21 C16.55171875 21.62648438 17.1034375 22.25296875 17.671875 22.8984375 C23.96910304 29.78797907 34.98847029 37.62007128 44.203125 39.43359375 C58.16261402 39.460234 68.97789776 30.29089366 78.7578125 21.2421875 C81.93219281 18.06780719 84.50545615 14.72252806 87 11 C87.70640625 9.95457031 88.4128125 8.90914063 89.140625 7.83203125 C91.11196053 4.89993808 93.0606323 1.95335183 95 -1 C114.02728472 1.75340837 142.81771169 8.03632138 156 23 C156.928125 23.928125 157.85625 24.85625 158.8125 25.8125 C176.58718953 46.98596738 175.1400355 75.09343327 175 101 C165.43 101 155.86 101 146 101 C145.96132813 96.64748047 145.96132813 96.64748047 145.921875 92.20703125 C145.88344002 89.39044578 145.83828447 86.57404249 145.79248047 83.75756836 C145.76429056 81.80323004 145.74306617 79.84877814 145.72900391 77.89428711 C145.70754693 75.08127777 145.66088305 72.26963129 145.609375 69.45703125 C145.60753204 68.15050346 145.60753204 68.15050346 145.60565186 66.81758118 C145.5066725 62.6991453 145.33355673 60.52804636 143.08691406 56.97143555 C140.58938949 54.61211045 139.6046037 54.06717819 136.1875 53.6875 C132.35473011 53.77066665 132.35473011 53.77066665 128 58 C127.67 72.19 127.34 86.38 127 101 C74.2 101 21.4 101 -33 101 C-33.495 80.21 -33.495 80.21 -34 59 C-38.19791667 53.80208333 -38.19791667 53.80208333 -42.0625 53.5625 C-44.89158449 53.98385301 -46.6471874 54.4034486 -49 56 C-51.03818811 59.05728217 -51.25659287 59.74090401 -51.31884766 63.19604492 C-51.33871735 64.03668991 -51.35858704 64.8773349 -51.37905884 65.74345398 C-51.39638565 67.09827629 -51.39638565 67.09827629 -51.4140625 68.48046875 C-51.43342865 69.40845779 -51.4527948 70.33644684 -51.4727478 71.29255676 C-51.53254244 74.25744425 -51.57892855 77.22237057 -51.625 80.1875 C-51.66317988 82.19728259 -51.70223162 84.20704881 -51.7421875 86.21679688 C-51.83988563 91.14444628 -51.91945505 96.07192073 -52 101 C-61.57 101 -71.14 101 -81 101 C-81.45160232 68.78570111 -81.45160232 68.78570111 -78 54 C-77.79503906 53.07058594 -77.59007812 52.14117187 -77.37890625 51.18359375 C-73.95125691 37.92008108 -66.40839042 24.14206235 -54.71240234 16.5065918 C-47.83203198 12.53235458 -40.60268916 9.87026173 -33.06689453 7.43969727 C-31.13006626 6.81413631 -29.19970735 6.17114987 -27.26953125 5.52539062 C-5.26425703 -1.75475234 -5.26425703 -1.75475234 0 0 Z " fill="#FDFDFD" transform="translate(353,396)"/>
<path d="M0 0 C157.08 0 314.16 0 476 0 C476 15.90909091 476 15.90909091 470.625 22.75 C466.12195456 26.2138811 460.72229565 26.28859588 455.27186012 26.25447559 C454.50925404 26.25768207 453.74664797 26.26088855 452.96093261 26.26419219 C450.40272169 26.27250084 447.84474435 26.26656489 445.28652954 26.26069641 C443.43501582 26.2637167 441.58350334 26.26760556 439.73199308 26.27228898 C434.641666 26.28259353 429.55140916 26.2803809 424.46107626 26.27610838 C418.97221709 26.27364562 413.48337503 26.28264973 407.99452209 26.29014587 C397.24029412 26.30290743 386.4860911 26.30468475 375.73185684 26.30234561 C366.99207628 26.30056391 358.2523033 26.30230891 349.51252365 26.30657005 C348.26950918 26.30716524 347.0264947 26.30776043 345.74581312 26.30837366 C343.22077518 26.30958538 340.69573723 26.31079952 338.17069928 26.31201603 C321.21203825 26.31980541 304.25338032 26.32372086 287.29471779 26.31969929 C286.29990817 26.31946472 286.29990817 26.31946472 285.28500139 26.31922542 C281.92359941 26.31841964 278.56219745 26.31757387 275.20079549 26.31671212 C274.53320919 26.31654103 273.8656229 26.31636994 273.17780672 26.31619367 C271.82778501 26.31584702 270.4777633 26.31549849 269.12774159 26.31514808 C248.12095175 26.30979077 227.11420388 26.31772144 206.10742188 26.33618164 C182.50643937 26.35689726 158.90547622 26.3675941 135.30448282 26.36360615 C122.80811292 26.36169201 110.31178127 26.36420242 97.81541824 26.37832069 C87.17715704 26.39021789 76.53895761 26.39165805 65.90069558 26.37953053 C60.47190829 26.37363017 55.04323411 26.37257436 49.61445427 26.38453293 C44.64520009 26.39535213 39.67615398 26.39233565 34.7069097 26.37827124 C32.90884297 26.37561337 31.11076014 26.37802491 29.31270917 26.38600711 C26.86816245 26.39610641 24.42433993 26.38769725 21.97982216 26.37473011 C21.28220225 26.38203946 20.58458234 26.3893488 19.86582243 26.39687964 C14.3890191 26.33668599 8.61167174 25.35611414 4.42985282 21.58349504 C-1.73721712 14.44157489 0 10.6652727 0 0 Z " fill="#F7F7F7" transform="translate(162,550)"/>
<path d="M0 0 C6.80069085 4.62681991 8.63605841 10.47911579 10.62890625 18.01757812 C11.84029199 22.28951791 12.97693295 25.09909791 16.5625 27.8125 C21.3848412 28.54633453 24.3974018 27.19255611 28.5625 24.8125 C33.57208136 30.61306789 36.10806589 34.33674213 35.9453125 42.20703125 C35.17438577 47.45405299 32.40991543 51.23676331 28.4375 54.625 C24.7461784 56.14967631 20.98450215 57.02195433 17.0859375 57.87109375 C14.00244767 59.02143593 13.1583652 59.95751179 11.5625 62.8125 C10.89165804 64.83324026 10.29320569 66.87877522 9.75 68.9375 C5.3387683 83.79638573 -5.09219663 97.3119478 -18.60546875 105.0546875 C-20.52662142 106.04229694 -22.45791038 106.94915475 -24.4375 107.8125 C-25.30375 108.204375 -26.17 108.59625 -27.0625 109 C-38.2844333 112.83908245 -50.79603579 111.70182139 -61.4375 106.8125 C-64.64936157 105.04623064 -67.54169606 103.05511508 -70.4375 100.8125 C-71.10265625 100.32265625 -71.7678125 99.8328125 -72.453125 99.328125 C-82.99406932 90.94516928 -91.47676837 76.7698478 -94.5 63.6875 C-95.20078624 60.71012153 -95.20078624 60.71012153 -97.5 59 C-100.05675626 57.96641768 -102.12728487 57.4757451 -104.8125 57 C-109.90196679 55.98040732 -113.03230882 53.67236159 -116.4375 49.8125 C-119.26150298 45.39232142 -119.09555208 39.89456486 -118.4375 34.8125 C-116.95541695 30.89191578 -114.64475409 27.53866598 -111.4375 24.8125 C-106.5625 26.6875 -106.5625 26.6875 -105.4375 27.8125 C-102.00662129 28.19370875 -100.15391665 28.36775676 -97.37109375 26.2109375 C-95.00953079 23.28164526 -94.27842476 20.74924709 -93.3125 17.125 C-92.74193583 15.00542483 -92.12901289 12.89575521 -91.4375 10.8125 C-90.7775 10.4825 -90.1175 10.1525 -89.4375 9.8125 C-88.61378906 10.11285156 -87.79007812 10.41320312 -86.94140625 10.72265625 C-66.62164677 17.042849 -42.95508196 8.28301097 -24.2253418 0.76000977 C-16.16062119 -2.36120013 -7.92281095 -4.50033307 0 0 Z " fill="#FDFDFD" transform="translate(441.4375,239.1875)"/>
<path d="M0 0 C3.00202286 2.62049033 5.78277943 5.40822275 8.54296875 8.28125 C9.1565625 8.88710937 9.77015625 9.49296875 10.40234375 10.1171875 C18.54245065 18.71884686 22.87493488 30.52516368 22.66796875 42.21875 C22.65894531 42.90259766 22.64992188 43.58644531 22.640625 44.29101562 C22.61735833 45.95458287 22.58150042 47.61796631 22.54296875 49.28125 C21.88296875 49.28125 21.22296875 49.28125 20.54296875 49.28125 C19.09765625 47.7421875 19.09765625 47.7421875 17.41796875 45.65625 C9.7554313 36.76896271 1.5331625 32.53095069 -10.2109375 30.8984375 C-21.93399649 30.3743067 -33.33157806 35.16841232 -44.16577148 39.12817383 C-50.81954022 41.5130837 -57.49304268 43.04182054 -64.45703125 44.28125 C-65.48054688 44.46429688 -66.5040625 44.64734375 -67.55859375 44.8359375 C-77.13644563 46.3074673 -84.79675225 44.6113895 -93.45703125 40.28125 C-98.46300012 39.78065311 -100.47486483 39.65118098 -104.76953125 42.40625 C-107.42385055 45.24575437 -108.96337719 47.71307642 -110.45703125 51.28125 C-110.78703125 51.28125 -111.11703125 51.28125 -111.45703125 51.28125 C-112.42455991 29.52260555 -112.42455991 29.52260555 -106.45703125 19.28125 C-106.02261719 18.49878906 -105.58820313 17.71632812 -105.140625 16.91015625 C-95.50402129 1.06878776 -79.23721589 -8.94466542 -61.53515625 -13.46484375 C-40.47523205 -17.59145052 -16.91651666 -13.89623289 0 0 Z " fill="#FCFCFC" transform="translate(444.45703125,187.71875)"/>
<path d="M0 0 C0.92524475 -0.01620895 1.8504895 -0.03241791 2.80377197 -0.04911804 C11.35354447 -0.18948836 19.90436721 -0.26745453 28.45504189 -0.32803631 C34.20296828 -0.36901916 39.94919253 -0.42939216 45.69628906 -0.53710938 C51.2478562 -0.64082131 56.79790459 -0.69543384 62.35038376 -0.71549416 C64.46602749 -0.7314352 66.58161505 -0.76468269 68.69670486 -0.81564903 C85.24425063 -1.19523642 85.24425063 -1.19523642 89.95283508 2.36494446 C91.79188415 4.93978771 93.0146701 7.34128302 94.18505859 10.2722168 C94.84111084 11.30805908 95.49716309 12.34390137 96.1730957 13.41113281 C96.68106689 14.27407959 97.18903809 15.13702637 97.71240234 16.02612305 C98.27636719 16.98196289 98.84033203 17.93780273 99.42138672 18.92260742 C99.98277344 19.88360352 100.54416016 20.84459961 101.12255859 21.8347168 C101.71101562 22.83051758 102.29947266 23.82631836 102.90576172 24.85229492 C107.18505859 32.1335608 107.18505859 32.1335608 107.18505859 33.2722168 C62.30505859 33.2722168 17.42505859 33.2722168 -28.81494141 33.2722168 C-22.05970162 20.88761052 -22.05970162 20.88761052 -19.42041016 16.6394043 C-18.85773438 15.7319043 -18.29505859 14.8244043 -17.71533203 13.8894043 C-16.86745117 12.53202148 -16.86745117 12.53202148 -16.00244141 11.1472168 C-15.12555664 9.73182617 -15.12555664 9.73182617 -14.23095703 8.2878418 C-9.66650599 0.94663897 -8.76360145 0.12023005 0 0 Z " fill="#FCFCFC" transform="translate(360.81494140625,593.727783203125)"/>
<path d="M0 0 C0.845625 0.144375 1.69125 0.28875 2.5625 0.4375 C4.2640625 0.7159375 4.2640625 0.7159375 6 1 C7.01964844 1.17273438 8.03929687 1.34546875 9.08984375 1.5234375 C13.75041238 2.09145885 18.31011993 2.18400009 23 2.1875 C23.86367188 2.19974609 24.72734375 2.21199219 25.6171875 2.22460938 C30.84950414 2.23653715 35.02416616 1.57360745 40 0 C41.32 0 42.64 0 44 0 C44.10957031 0.95261719 44.21914063 1.90523438 44.33203125 2.88671875 C44.49058594 4.14097656 44.64914062 5.39523437 44.8125 6.6875 C44.96332031 7.92886719 45.11414063 9.17023438 45.26953125 10.44921875 C46.19874357 14.96608506 47.76108023 17.76108023 51 21 C50.41437511 29.39871798 42.78698141 36.52628248 36.9375 41.9375 C27.60467009 49.87396758 27.60467009 49.87396758 21.125 50.1875 C11.06924663 48.2150253 1.1476511 36.60194744 -4.625 28.6875 C-6.17741355 25.65323715 -6.65202679 24.34163729 -6 21 C-4.81013509 18.54557014 -3.44728445 16.32442655 -2 14 C-0.64908472 11.29816945 -0.66141942 8.88191794 -0.4375 5.875 C-0.35371094 4.77929688 -0.26992188 3.68359375 -0.18359375 2.5546875 C-0.12300781 1.71164062 -0.06242187 0.86859375 0 0 Z " fill="#FCFCFC" transform="translate(378,366)"/>
<path d="M0 0 C29.34010075 5.18510401 61.2053969 14.88894285 78.96704102 40.265625 C80.69494831 42.82196124 82.01967041 45.05901124 83 48 C82.0625 50.1875 82.0625 50.1875 81 52 C69.17849482 52.86078921 69.17849482 52.86078921 65.25 49.625 C63 47 63 47 63 45 C62.34 45 61.68 45 61 45 C60.67 46.32 60.34 47.64 60 49 C55 43.25 55 43.25 55 41 C54.21882813 40.61714844 54.21882813 40.61714844 53.421875 40.2265625 C51.58242565 39.29497041 49.76272694 38.32425856 47.953125 37.3359375 C36.14052127 31.01129628 23.74077572 27.03157318 11 23 C9.3096356 22.46191476 7.62068974 21.91934065 5.93359375 21.37109375 C5.23161865 21.14478271 4.52964355 20.91847168 3.80639648 20.68530273 C0.95984204 19.60538946 -0.36775654 18.58438548 -2 16 C-3.76159733 9.65578582 -2.73306026 5.82816226 0 0 Z " fill="#404040" transform="translate(453,376)"/>
<path d="M0 0 C1.98 0 3.96 0 6 0 C6.495 2.97 6.495 2.97 7 6 C9.64 6 12.28 6 15 6 C7.45915505 22.19885212 -6.92387522 33.86161065 -23 41 C-28.53016731 42.8433891 -32.81469828 42.90919343 -38.1640625 40.68359375 C-44.98088922 37.11553574 -51.22378251 33.08180883 -57 28 C-57.84175781 27.26394531 -58.68351562 26.52789062 -59.55078125 25.76953125 C-65.89338624 19.88067405 -65.89338624 19.88067405 -66.375 15.90234375 C-66 13 -66 13 -63.9375 10.125 C-60.29837208 7.49243938 -58.40184998 7.42938982 -54 8 C-53.01 8.66 -52.02 9.32 -51 10 C-50.0925 10.2475 -49.185 10.495 -48.25 10.75 C-45.21608515 11.91689033 -43.85274442 12.82939936 -41.5 14.9375 C-37.53466089 18.48543499 -34.28679365 20.86548273 -28.8125 21.1875 C-20.32986226 18.54536693 -13.77558283 12.40825768 -8.4375 5.46875 C-7.963125 4.9840625 -7.48875 4.499375 -7 4 C-6.01 4 -5.02 4 -4 4 C-3.34 7.3 -2.68 10.6 -2 14 C-0.99740493 10.99221479 -0.69685358 8.46179353 -0.4375 5.3125 C-0.31181641 3.82169922 -0.31181641 3.82169922 -0.18359375 2.30078125 C-0.12300781 1.54152344 -0.06242187 0.78226562 0 0 Z " fill="#3B3B3B" transform="translate(430,394)"/>
<path d="M0 0 C0 0.66 0 1.32 0 2 C0.5775 2.20625 1.155 2.4125 1.75 2.625 C4.97715502 4.59715029 6.19382287 6.67678428 8 10 C8.48393679 12.91902827 8.42703883 15.73748879 8.3125 18.6875 C8.30283203 19.44611328 8.29316406 20.20472656 8.28320312 20.98632812 C8.21751963 24.22195411 8.02851399 26.91445803 7 30 C4.05610218 31.17755913 3.10046087 31.03348696 0 30 C-0.33 29.34 -0.66 28.68 -1 28 C-1.66 28.33 -2.32 28.66 -3 29 C-3.103125 28.05125 -3.20625 27.1025 -3.3125 26.125 C-3.68539295 22.70892499 -3.68539295 22.70892499 -7 21 C-5.35 21.33 -3.7 21.66 -2 22 C-1.67 18.7 -1.34 15.4 -1 12 C-1.66 12 -2.32 12 -3 12 C-3 11.34 -3 10.68 -3 10 C-6.24983135 11.08784968 -6.24983135 11.08784968 -9 13 C-8.8981629 14.91424457 -8.8981629 14.91424457 -8.5625 17.0625 C-8.2840625 19.0115625 -8.2840625 19.0115625 -8 21 C-8.99 20.67 -9.98 20.34 -11 20 C-11 20.33 -11 20.66 -11 21 C-8.69 21.99 -6.38 22.98 -4 24 C-4 26.31 -4 28.62 -4 31 C-10.75 30.25 -10.75 30.25 -13 28 C-11.35 28.33 -9.7 28.66 -8 29 C-8 28.34 -8 27.68 -8 27 C-9.32 27 -10.64 27 -12 27 C-12 26.34 -12 25.68 -12 25 C-10.35 25 -8.7 25 -7 25 C-10.86763446 23.12456646 -10.86763446 23.12456646 -15 24 C-15.66 22.35 -16.32 20.7 -17 19 C-17.66 19.66 -18.32 20.32 -19 21 C-20.17051429 18.65897141 -20.1992246 17.10647047 -20.25 14.5 C-20.27578125 13.7059375 -20.3015625 12.911875 -20.328125 12.09375 C-20.21984375 11.4028125 -20.1115625 10.711875 -20 10 C-19.01 9.34 -18.02 8.68 -17 8 C-16.34 8.33 -15.68 8.66 -15 9 C-15.62759865 6.07120629 -16.58622659 3.63904371 -18 1 C-11.76647981 -1.3548854 -6.54311329 -0.87557031 0 0 Z " fill="#F5F5F5" transform="translate(348,399)"/>
<path d="M0 0 C2.43929614 0.45005464 4.87611777 0.90964876 7.3125 1.375 C8.34793945 1.56449219 8.34793945 1.56449219 9.40429688 1.7578125 C12.83703314 2.42114318 15.05246458 3.03497639 18 5 C17.34 5 16.68 5 16 5 C16.99 6.485 16.99 6.485 18 8 C18.36851472 11.39033542 18.19566005 13.53258988 16.875 16.6875 C14.49484296 19.62302702 12.55965681 20.74365054 9 22 C5.08783957 22 3.37990001 21.27015112 0.1875 19 C-2.63524392 15.12880834 -3.48175633 11.77239867 -3 7 C-2.12403426 4.58982102 -1.08767333 2.32830073 0 0 Z " fill="#5C5C5C" transform="translate(453,376)"/>
<path d="M0 0 C0.33 0.66 0.66 1.32 1 2 C-0.65 2 -2.3 2 -4 2 C-3.34 2.66 -2.68 3.32 -2 4 C-2.99 4.495 -2.99 4.495 -4 5 C-2.68 5 -1.36 5 0 5 C0 5.66 0 6.32 0 7 C-0.66 7 -1.32 7 -2 7 C-2.2475 7.5775 -2.495 8.155 -2.75 8.75 C-4.16683317 11.3002997 -5.87627537 13.01785701 -8 15 C-8 14.01 -8 13.02 -8 12 C-8.66 13.65 -9.32 15.3 -10 17 C-9.195625 17.12375 -8.39125 17.2475 -7.5625 17.375 C-6.2940625 17.684375 -6.2940625 17.684375 -5 18 C-4.67 18.66 -4.34 19.32 -4 20 C-2.35 20 -0.7 20 1 20 C1 19.34 1 18.68 1 18 C1.99 18.33 2.98 18.66 4 19 C1.03 24.445 1.03 24.445 -2 30 C-7.31541845 30 -10.12389989 28.77409748 -14 25 C-16.30174165 20.28690996 -16.8972569 15.1592272 -16 10 C-14.66550422 7.33614112 -13.01142323 5.18706864 -11 3 C-10.5359375 2.44441406 -10.071875 1.88882812 -9.59375 1.31640625 C-6.72643318 -1.05194122 -3.57780424 -0.17595759 0 0 Z " fill="#F4F4F4" transform="translate(264,399)"/>
<path d="M0 0 C8.02071473 1.94202345 15.45450713 4.66839495 23 8 C22.01 8.495 22.01 8.495 21 9 C21.02320313 10.04800781 21.04640625 11.09601563 21.0703125 12.17578125 C21.08907303 13.55468037 21.10727293 14.9335872 21.125 16.3125 C21.15013672 17.34793945 21.15013672 17.34793945 21.17578125 18.40429688 C21.21217794 22.17135396 21.14378864 23.78431704 19 27 C16 27.375 16 27.375 13 27 C10.47224649 23.20836973 10.77556965 20.19125969 10.875 15.8125 C10.88402344 15.06291016 10.89304687 14.31332031 10.90234375 13.54101562 C10.92587422 11.69387346 10.96174439 9.84689588 11 8 C9.68 8.33 8.36 8.66 7 9 C6.95101563 10.05960937 6.90203125 11.11921875 6.8515625 12.2109375 C6.77653291 13.59898497 6.70098515 14.98700451 6.625 16.375 C6.57859375 17.42300781 6.57859375 17.42300781 6.53125 18.4921875 C6.2265625 23.7734375 6.2265625 23.7734375 4 26 C4.495 17.09 4.495 17.09 5 8 C4.34 8 3.68 8 3 8 C2.67 7.34 2.34 6.68 2 6 C1.01 6.33 0.02 6.66 -1 7 C-2 4 -2 4 -1.0625 1.8125 C-0.5365625 0.9153125 -0.5365625 0.9153125 0 0 Z " fill="#F3F3F3" transform="translate(474,402)"/>
<path d="M0 0 C1.2890625 1.75 1.2890625 1.75 2.625 4 C3.07101562 4.7425 3.51703125 5.485 3.9765625 6.25 C4.31429688 6.8275 4.65203125 7.405 5 8 C5 7.34 5 6.68 5 6 C6.65 5.67 8.3 5.34 10 5 C10 6.66666667 10 8.33333333 10 10 C12.64 10.33 15.28 10.66 18 11 C18 13.31 18 15.62 18 18 C17.09636719 18.06058594 16.19273437 18.12117188 15.26171875 18.18359375 C13.49248047 18.30927734 13.49248047 18.30927734 11.6875 18.4375 C9.92986328 18.55931641 9.92986328 18.55931641 8.13671875 18.68359375 C4.97409042 18.8867371 4.97409042 18.8867371 2 20 C2 19.34 2 18.68 2 18 C0.8553125 17.9071875 0.8553125 17.9071875 -0.3125 17.8125 C-3 17 -3 17 -4.8125 14.4375 C-5.204375 13.633125 -5.59625 12.82875 -6 12 C-5.34 11.67 -4.68 11.34 -4 11 C-4.33 8.03 -4.66 5.06 -5 2 C-2 0 -2 0 0 0 Z " fill="#F6F6F6" transform="translate(306,409)"/>
<path d="M0 0 C0.99 0 1.98 0 3 0 C3.75 2.75 3.75 2.75 4 6 C2.00374564 8.84082351 0.74468609 9.82975465 -2.6484375 10.60546875 C-3.81246094 10.80076172 -3.81246094 10.80076172 -5 11 C-5.03738281 11.80824219 -5.07476562 12.61648438 -5.11328125 13.44921875 C-5.17902344 14.51785156 -5.24476563 15.58648437 -5.3125 16.6875 C-5.37050781 17.74324219 -5.42851562 18.79898437 -5.48828125 19.88671875 C-6.14234959 23.86605056 -7.46484853 26.8059933 -10.6875 29.3125 C-14.167882 30.34720816 -17.37655866 30.12078138 -21 30 C-21.6875 27.6875 -21.6875 27.6875 -22 25 C-20.9375 23.1875 -20.9375 23.1875 -19 22 C-15.8125 21.8125 -15.8125 21.8125 -13 22 C-13.20625 20.700625 -13.4125 19.40125 -13.625 18.0625 C-13.66445407 14.48908842 -13.24910726 13.28901948 -10.87890625 10.5390625 C-9.11538162 8.99821805 -7.31609615 7.49716708 -5.48046875 6.04296875 C-2.9548227 4.13807104 -2.9548227 4.13807104 -1.36328125 1.73828125 C-0.91339844 1.16464844 -0.46351563 0.59101563 0 0 Z " fill="#585858" transform="translate(423,398)"/>
<path d="M0 0 C2.86246148 1.97411136 4.44128894 3.74385675 5.2890625 7.18359375 C5.92133987 11.19046777 6.11450882 12.79698676 3.8125 16.25 C3.14734375 15.66347656 2.4821875 15.07695312 1.796875 14.47265625 C-1.62746705 11.92232821 -5.02252968 10.33423669 -8.9375 8.6875 C-9.64326172 8.38448975 -10.34902344 8.08147949 -11.07617188 7.76928711 C-16.03995048 5.66401141 -21.02541552 3.81706136 -26.1875 2.25 C-25.8575 1.59 -25.5275 0.93 -25.1875 0.25 C-23.72376953 0.26740234 -23.72376953 0.26740234 -22.23046875 0.28515625 C-20.95816406 0.29417969 -19.68585938 0.30320312 -18.375 0.3125 C-16.47814453 0.32990234 -16.47814453 0.32990234 -14.54296875 0.34765625 C-0.20323817 -0.06968166 -0.20323817 -0.06968166 0 0 Z " fill="#3B3B3B" transform="translate(502.1875,400.75)"/>
<path d="M0 0 C0.33 1.65 0.66 3.3 1 5 C-0.65 5.66 -2.3 6.32 -4 7 C-4 7.66 -4 8.32 -4 9 C-4.99 9.495 -4.99 9.495 -6 10 C-5.96519531 10.89203125 -5.93039062 11.7840625 -5.89453125 12.703125 C-5.86746094 13.87359375 -5.84039062 15.0440625 -5.8125 16.25 C-5.77769531 17.41015625 -5.74289062 18.5703125 -5.70703125 19.765625 C-6.02160631 23.23853368 -6.47941489 24.62630213 -9 27 C-9.99 27 -10.98 27 -12 27 C-13.7482484 23.5035032 -13.22708836 19.53951945 -13.25 15.6875 C-13.270625 14.83220703 -13.29125 13.97691406 -13.3125 13.09570312 C-13.34240411 8.26992676 -13.24895091 4.85765366 -10 1 C-6.34877008 -0.70908635 -3.82857714 -1.47252967 0 0 Z " fill="#585858" transform="translate(294,401)"/>
<path d="M0 0 C1.98 0 3.96 0 6 0 C6.33 1.98 6.66 3.96 7 6 C9.64 6 12.28 6 15 6 C11.46309273 13.35818899 6.79970682 19.26020751 1 25 C0.67 25 0.34 25 0 25 C0 16.75 0 8.5 0 0 Z " fill="#383838" transform="translate(430,394)"/>
<path d="M0 0 C0.99 0.33 1.98 0.66 3 1 C3 1.99 3 2.98 3 4 C2.34 4 1.68 4 1 4 C0.91885894 5.77007714 0.86074495 7.54122098 0.8125 9.3125 C0.77769531 10.29863281 0.74289062 11.28476562 0.70703125 12.30078125 C0.78677942 14.98638579 0.78677942 14.98638579 2.21875 16.8125 C4.43873645 18.29249097 6.03821627 18.49552292 8.6875 18.6875 C9.49574219 18.75324219 10.30398438 18.81898438 11.13671875 18.88671875 C11.75160156 18.92410156 12.36648438 18.96148437 13 19 C12.67 19.99 12.34 20.98 12 22 C10.39620659 22.05416188 8.79188594 22.09286638 7.1875 22.125 C6.29417969 22.14820313 5.40085937 22.17140625 4.48046875 22.1953125 C2 22 2 22 -1 20 C-1 19.34 -1 18.68 -1 18 C-1.66 18 -2.32 18 -3 18 C-3.84604751 15.05897771 -4.13522521 12.43233732 -4.125 9.375 C-4.12757813 8.59898437 -4.13015625 7.82296875 -4.1328125 7.0234375 C-4 5 -4 5 -3 3 C-2.34 3 -1.68 3 -1 3 C-0.67 2.01 -0.34 1.02 0 0 Z " fill="#3D3D3D" transform="translate(520,404)"/>
<path d="M0 0 C0 1.32 0 2.64 0 4 C-2.31 4.66 -4.62 5.32 -7 6 C-7.02578125 6.79664063 -7.0515625 7.59328125 -7.078125 8.4140625 C-7.69994093 20.03071471 -7.69994093 20.03071471 -12 24 C-14.84868417 24.49021334 -17.0776596 24.29223404 -20 24 C-20.33 23.34 -20.66 22.68 -21 22 C-20.67 21.34 -20.34 20.68 -20 20 C-17.6859378 19.26924352 -15.35171131 18.59861742 -13 18 C-13.020625 17.28714844 -13.04125 16.57429688 -13.0625 15.83984375 C-12.89807336 8.20428143 -12.89807336 8.20428143 -10.29296875 4.7109375 C-5.06828704 0 -5.06828704 0 0 0 Z " fill="#3A3A3A" transform="translate(424,402)"/>
<path d="M0 0 C0.763125 0.0825 1.52625 0.165 2.3125 0.25 C0.9375 2.25 0.9375 2.25 -0.6875 4.25 C-1.3475 4.25 -2.0075 4.25 -2.6875 4.25 C-2.50620185 7.68793339 -2.50620185 7.68793339 -1.6875 11.25 C0.13279908 12.87031521 0.13279908 12.87031521 2.3125 13.25 C2.9725 12.92 3.6325 12.59 4.3125 12.25 C4.96463292 10.22536745 4.96463292 10.22536745 5.3125 8.25 C4.6525 8.25 3.9925 8.25 3.3125 8.25 C3.3125 9.24 3.3125 10.23 3.3125 11.25 C2.3225 11.25 1.3325 11.25 0.3125 11.25 C0.3125 9.27 0.3125 7.29 0.3125 5.25 C3.1875 5.0625 3.1875 5.0625 6.3125 5.25 C8.3125 8.25 8.3125 8.25 8.125 11.3125 C7.3125 14.25 7.3125 14.25 4.3125 16.25 C1.18314003 16.05025362 -1.20311788 15.46669727 -4.0625 14.1875 C-6.20907753 11.6281191 -6.18836191 9.4593505 -6.0078125 6.19140625 C-5.34598342 2.18007633 -4.09637214 0.38105787 0 0 Z " fill="#3B3B3B" transform="translate(459.6875,377.75)"/>
<path d="M0 0 C3.96 1.98 3.96 1.98 8 4 C7.67 8.29 7.34 12.58 7 17 C2 18 2 18 0 17 C0 11.39 0 5.78 0 0 Z " fill="#595959" transform="translate(390,411)"/>
<path d="M0 0 C0.33 0 0.66 0 1 0 C1.33 2.97 1.66 5.94 2 9 C2.99 9.33 3.98 9.66 5 10 C4.01 10.495 4.01 10.495 3 11 C3.33 11.66 3.66 12.32 4 13 C6.02463255 13.65213292 6.02463255 13.65213292 8 14 C7.67 14.66 7.34 15.32 7 16 C5.700625 15.814375 4.40125 15.62875 3.0625 15.4375 C0.91424457 15.1018371 0.91424457 15.1018371 -1 15 C-1.33 15.33 -1.66 15.66 -2 16 C-5 15 -5 15 -6.6875 11.9375 C-7.120625 10.968125 -7.55375 9.99875 -8 9 C-6.69088122 7.49704815 -5.37761608 5.99770689 -4.0625 4.5 C-3.33160156 3.6646875 -2.60070312 2.829375 -1.84765625 1.96875 C-1.23792969 1.3190625 -0.62820313 0.669375 0 0 Z " fill="#F1F1F1" transform="translate(437,411)"/>
<path d="M0 0 C1.45212891 -0.03867187 1.45212891 -0.03867187 2.93359375 -0.078125 C5.99444032 0.30391231 6.56438538 1.03677123 8.5625 3.25 C7.38171875 3.65992188 6.2009375 4.06984375 4.984375 4.4921875 C3.42703448 5.03631853 1.8697455 5.5805971 0.3125 6.125 C-0.46480469 6.39441406 -1.24210937 6.66382813 -2.04296875 6.94140625 C-3.17412109 7.33779297 -3.17412109 7.33779297 -4.328125 7.7421875 C-5.01938477 7.98308105 -5.71064453 8.22397461 -6.42285156 8.47216797 C-8.50378076 9.27559022 -10.459122 10.22201928 -12.4375 11.25 C-11.93447411 6.84852343 -10.41304199 4.49604581 -7.4375 1.25 C-4.85741408 -0.04004296 -2.88008426 0.04589776 0 0 Z " fill="#3D3D3D" transform="translate(312.4375,400.75)"/>
<path d="M0 0 C5.1154241 3.36156441 7.3265957 7.67594378 10 13 C8.3973218 13.10824843 6.79254252 13.18570645 5.1875 13.25 C4.29417969 13.29640625 3.40085937 13.3428125 2.48046875 13.390625 C0 13 0 13 -1.8359375 11.2109375 C-3.57739985 7.90332781 -2.85369193 5.54610494 -2 2 C-1.34 1.34 -0.68 0.68 0 0 Z " fill="#404040" transform="translate(524,408)"/>
<path d="M0 0 C0.33 0 0.66 0 1 0 C1.30752701 5.84301324 0.92906831 9.74787751 -2 15 C-4.60918529 17.67784806 -5.8909205 18.95934459 -9.6640625 19.09765625 C-10.43492187 19.06542969 -11.20578125 19.03320312 -12 19 C-8.52593611 12.29825972 -5.01351845 5.69940696 0 0 Z " fill="#595959" transform="translate(274,409)"/>
<path d="M0 0 C2.76314599 0.89802245 3.9089781 1.38409816 5.5 3.8125 C5.6875 7 5.6875 7 5.5 9.8125 C4.18 10.1425 2.86 10.4725 1.5 10.8125 C1.5 11.1425 1.5 11.4725 1.5 11.8125 C-0.875 12 -0.875 12 -3.5 11.8125 C-5.95331002 8.13253497 -5.89507893 6.15836828 -5.5 1.8125 C-2.5 -0.1875 -2.5 -0.1875 0 0 Z " fill="#EFEFEF" transform="translate(546.5,418.1875)"/>
<path d="M0 0 C0 0.66 0 1.32 0 2 C-2.5614657 4.29648649 -3.47967572 5 -7 5 C-7 10.94 -7 16.88 -7 23 C-7.99 23 -8.98 23 -10 23 C-12.08304011 8.67909923 -12.08304011 8.67909923 -9.8125 3.0625 C-6.78525455 -0.38229654 -4.3868629 -1.46228763 0 0 Z " fill="#393939" transform="translate(293,403)"/>
<path d="M0 0 C1.98 0 3.96 0 6 0 C6.33 1.98 6.66 3.96 7 6 C9.64 6 12.28 6 15 6 C14.01 7.485 14.01 7.485 13 9 C10.36 8.67 7.72 8.34 5 8 C5 6.02 5 4.04 5 2 C4.01 2 3.02 2 2 2 C2.11361602 4.79256219 2.2403589 7.58344118 2.375 10.375 C2.4059375 11.1690625 2.436875 11.963125 2.46875 12.78125 C2.51816421 17.36667375 2.51816421 17.36667375 5 21 C3.35 22.32 1.7 23.64 0 25 C0 16.75 0 8.5 0 0 Z " fill="#575757" transform="translate(430,394)"/>
<path d="M0 0 C2.86246148 1.97411136 4.44128894 3.74385675 5.2890625 7.18359375 C5.92133987 11.19046777 6.11450882 12.79698676 3.8125 16.25 C3.1525 15.26 2.4925 14.27 1.8125 13.25 C2.4725 13.25 3.1325 13.25 3.8125 13.25 C3.58389942 11.78815942 3.32879608 10.33044581 3.0625 8.875 C2.92328125 8.06289063 2.7840625 7.25078125 2.640625 6.4140625 C1.99703451 4.11010642 1.99703451 4.11010642 -0.08203125 2.9765625 C-4.83636606 1.33592006 -8.73771615 2.15598407 -13.1875 4.25 C-13.5175 3.92 -13.8475 3.59 -14.1875 3.25 C-16.45141568 3.21843145 -18.69889861 3.31805369 -20.9609375 3.41015625 C-23.1875 3.25 -23.1875 3.25 -26.1875 1.25 C-25.1875 0.25 -25.1875 0.25 -22.1328125 0.1875 C-19.59114444 0.22908148 -17.04947776 0.2707478 -14.5078125 0.3125 C-9.32451929 0.21493213 -5.19961336 -1.78272458 0 0 Z " fill="#585858" transform="translate(502.1875,400.75)"/>
<path d="M0 0 C1.98 0 3.96 0 6 0 C8.05020016 4.10040032 8.17313546 6.57818173 7 11 C6.06057514 13.02915769 5.07401615 15.03875312 4 17 C2.68 17 1.36 17 0 17 C1.875 13.125 1.875 13.125 3 12 C3.04063832 10.33382885 3.042721 8.66611905 3 7 C2.67 7.99 2.34 8.98 2 10 C1.34 10 0.68 10 0 10 C0 10.66 0 11.32 0 12 C-1.32 11.67 -2.64 11.34 -4 11 C-3.01 11 -2.02 11 -1 11 C-1 10.34 -1 9.68 -1 9 C-0.34 9 0.32 9 1 9 C0.34 8.01 -0.32 7.02 -1 6 C-0.625 2.8125 -0.625 2.8125 0 0 Z " fill="#F7F7F7" transform="translate(445,411)"/>
<path d="M0 0 C4.70588235 0.70588235 4.70588235 0.70588235 6 2 C6.07258946 4.18639453 6.08373783 6.37500389 6.0625 8.5625 C6.05347656 9.76003906 6.04445313 10.95757812 6.03515625 12.19140625 C6.02355469 13.11824219 6.01195312 14.04507812 6 15 C3.13600672 13.71614094 0.91847216 12.52243562 -1 10 C-1.328125 7.7734375 -1.328125 7.7734375 -1.25 5.375 C-1.23453125 4.57835937 -1.2190625 3.78171875 -1.203125 2.9609375 C-1 1 -1 1 0 0 Z " fill="#393939" transform="translate(370,408)"/>
<path d="M0 0 C0.33 0 0.66 0 1 0 C1 5.28 1 10.56 1 16 C1.66 16 2.32 16 3 16 C3 16.99 3 17.98 3 19 C-0.01031744 19.93423645 -0.86650268 20.04449911 -4 19 C-4.33 18.34 -4.66 17.68 -5 17 C-5.66 17.33 -6.32 17.66 -7 18 C-7.103125 17.05125 -7.20625 16.1025 -7.3125 15.125 C-7.68539295 11.70892499 -7.68539295 11.70892499 -11 10 C-8.525 10.495 -8.525 10.495 -6 11 C-5.67 7.7 -5.34 4.4 -5 1 C-4.67 1 -4.34 1 -4 1 C-3.67 6.61 -3.34 12.22 -3 18 C-1.61201306 16.84575938 -1.61201306 16.84575938 -1.97265625 13.69140625 C-2.01095238 11.61333743 -2.06329875 9.53643167 -2.12695312 7.45898438 C-2.15690319 5.63907734 -2.08461477 3.81818562 -2 2 C-1.34 1.34 -0.68 0.68 0 0 Z " fill="#EDEDED" transform="translate(352,410)"/>
<path d="M0 0 C0.33 0.99 0.66 1.98 1 3 C-0.32 3 -1.64 3 -3 3 C-2.62095792 6.29075996 -2.62095792 6.29075996 -1 9 C-0.34 9.66 0.32 10.32 1 11 C0.67 11.99 0.34 12.98 0 14 C-1.60820412 12.58791833 -3.21140708 11.17013964 -4.8125 9.75 C-5.70582031 8.96109375 -6.59914063 8.1721875 -7.51953125 7.359375 C-9.64128225 5.34120555 -11.34254423 3.40083295 -13 1 C-8.59085217 -0.10228696 -4.51617599 -0.07654536 0 0 Z " fill="#F6F6F6" transform="translate(392,399)"/>
<path d="M0 0 C1.23759823 3.71279469 1.35608897 7.31306346 1.5625 11.1875 C1.60568359 11.93708984 1.64886719 12.68667969 1.69335938 13.45898438 C1.79922685 15.30578375 1.9000976 17.15286834 2 19 C0.68 18.34 -0.64 17.68 -2 17 C-2 12.38 -2 7.76 -2 3 C-3.65 2.67 -5.3 2.34 -7 2 C-7.33 4.64 -7.66 7.28 -8 10 C-8.66 9.67 -9.32 9.34 -10 9 C-10.29296875 2.9453125 -10.29296875 2.9453125 -10 1 C-6.1496895 -1.56687367 -4.41430237 -0.83288724 0 0 Z " fill="#595959" transform="translate(377,407)"/>
<path d="M0 0 C0.99 0.33 1.98 0.66 3 1 C1.02 4.63 -0.96 8.26 -3 12 C-5.62113708 12 -7.50935112 11.68707555 -10 11 C-9.34 9.02 -8.68 7.04 -8 5 C-6.576875 4.87625 -6.576875 4.87625 -5.125 4.75 C-1.89538209 4.34925077 -1.89538209 4.34925077 -0.625 1.9375 C-0.41875 1.298125 -0.2125 0.65875 0 0 Z " fill="#F5F5F5" transform="translate(265,417)"/>
<path d="M0 0 C0.33 0.66 0.66 1.32 1 2 C0.34 2 -0.32 2 -1 2 C-1.2475 2.5775 -1.495 3.155 -1.75 3.75 C-3.16683317 6.3002997 -4.87627537 8.01785701 -7 10 C-7.33 9.01 -7.66 8.02 -8 7 C-8.66 8.98 -9.32 10.96 -10 13 C-10.33 13 -10.66 13 -11 13 C-10.88541307 11.56163249 -10.75790884 10.12429034 -10.625 8.6875 C-10.55539063 7.88699219 -10.48578125 7.08648437 -10.4140625 6.26171875 C-10 4 -10 4 -8 1 C-6.0546875 0.48828125 -6.0546875 0.48828125 -3.875 0.3125 C-2.59625 0.209375 -1.3175 0.10625 0 0 Z " fill="#F7F7F7" transform="translate(263,404)"/>
<path d="M0 0 C-0.50603992 2.16874252 -0.99983813 3.99967627 -2 6 C-2.66 6 -3.32 6 -4 6 C-4 6.66 -4 7.32 -4 8 C-4.66 8 -5.32 8 -6 8 C-6 7.34 -6 6.68 -6 6 C-7.093125 6 -8.18625 6 -9.3125 6 C-11.54166667 6 -13.77083333 6 -16 6 C-13.50063756 3.50063756 -11.35191992 2.96276247 -8 1.875 C-6.9275 1.52179688 -5.855 1.16859375 -4.75 0.8046875 C-2 0 -2 0 0 0 Z " fill="#ECECEC" transform="translate(323,403)"/>
<path d="M0 0 C0.99 0.33 1.98 0.66 3 1 C-0.95825209 5.82485166 -4.59160025 9.83410746 -10 13 C-10.33 12.01 -10.66 11.02 -11 10 C-9.66666667 8.66666667 -8.33333333 7.33333333 -7 6 C-6.29875 5.2575 -5.5975 4.515 -4.875 3.75 C-3 2 -3 2 -1 2 C-0.67 1.34 -0.34 0.68 0 0 Z " fill="#EDEDED" transform="translate(419,399)"/>
<path d="M0 0 C2.5625 2 2.5625 2 5 5 C5.14963532 7.89116824 4.63149193 10.13399816 4 13 C3.34 13 2.68 13 2 13 C1.67 13.66 1.34 14.32 1 15 C0 14 0 14 -0.09765625 10.83984375 C-0.08025391 8.90818359 -0.08025391 8.90818359 -0.0625 6.9375 C-0.05347656 5.64714844 -0.04445313 4.35679687 -0.03515625 3.02734375 C-0.02355469 2.02832031 -0.01195312 1.02929688 0 0 Z " fill="#EAEAEA" transform="translate(363,412)"/>
<path d="M0 0 C0.86625 0.05542969 1.7325 0.11085938 2.625 0.16796875 C5.62638361 0.98248897 6.41389616 2.20899402 8 4.8125 C3.25 3.9375 3.25 3.9375 1 2.8125 C-4.01121384 2.32524751 -4.01121384 2.32524751 -8.375 4.5 C-10.13434402 7.00368187 -10.66466723 8.79450506 -11 11.8125 C-11.99 10.8225 -12.98 9.8325 -14 8.8125 C-13.07161713 7.49353535 -12.13194268 6.18251311 -11.1875 4.875 C-10.66542969 4.14410156 -10.14335937 3.41320312 -9.60546875 2.66015625 C-6.81424749 -0.55212515 -3.97118114 -0.31320327 0 0 Z " fill="#5D5D5D" transform="translate(375,400.1875)"/>
<path d="M0 0 C1.45212891 -0.03867187 1.45212891 -0.03867187 2.93359375 -0.078125 C5.5625 0.25 5.5625 0.25 7.41015625 1.765625 C7.79042969 2.25546875 8.17070312 2.7453125 8.5625 3.25 C7.2425 3.58 5.9225 3.91 4.5625 4.25 C4.2325 3.59 3.9025 2.93 3.5625 2.25 C-1.52053686 2.13679144 -1.52053686 2.13679144 -6.4375 3.25 C-6.4375 3.91 -6.4375 4.57 -6.4375 5.25 C-7.4375 6.25 -8.4375 7.25 -9.4375 8.25 C-9.4375 8.91 -9.4375 9.57 -9.4375 10.25 C-10.4275 10.58 -11.4175 10.91 -12.4375 11.25 C-11.93447411 6.84852343 -10.41304199 4.49604581 -7.4375 1.25 C-4.85741408 -0.04004296 -2.88008426 0.04589776 0 0 Z " fill="#5C5C5C" transform="translate(312.4375,400.75)"/>
<path d="M0 0 C0.33 0.99 0.66 1.98 1 3 C-1.04074305 6.57130033 -2.55753136 8.7050209 -6 11 C-8.475 7.04 -8.475 7.04 -11 3 C-9.35 2.67 -7.7 2.34 -6 2 C-6 2.66 -6 3.32 -6 4 C-5.34 4 -4.68 4 -4 4 C-3.67 4.66 -3.34 5.32 -3 6 C-2.01 4.02 -1.02 2.04 0 0 Z " fill="#EFEEEF" transform="translate(537,406)"/>
<path d="M0 0 C0 1.32 0 2.64 0 4 C-2.31 4.66 -4.62 5.32 -7 6 C-7.33 9.96 -7.66 13.92 -8 18 C-8.33 18 -8.66 18 -9 18 C-9.1953125 15.94921875 -9.390625 13.8984375 -9.5859375 11.84765625 C-9.79089844 10.93306641 -9.79089844 10.93306641 -10 10 C-10.66 9.67 -11.32 9.34 -12 9 C-12 7 -12 7 -10.390625 5.2734375 C-9.68421875 4.64695312 -8.9778125 4.02046875 -8.25 3.375 C-7.55390625 2.74335938 -6.8578125 2.11171875 -6.140625 1.4609375 C-4 0 -4 0 0 0 Z " fill="#4B4B4B" transform="translate(424,402)"/>
<path d="M0 0 C1.98 0 3.96 0 6 0 C5.67 0.66 5.34 1.32 5 2 C5 2.66 5 3.32 5 4 C5 5.66666667 5 7.33333333 5 9 C4.34 8.34 3.68 7.68 3 7 C2.67 7.99 2.34 8.98 2 10 C1.34 10 0.68 10 0 10 C0 10.66 0 11.32 0 12 C-1.32 11.67 -2.64 11.34 -4 11 C-3.01 11 -2.02 11 -1 11 C-1 10.34 -1 9.68 -1 9 C-0.34 9 0.32 9 1 9 C0.34 8.01 -0.32 7.02 -1 6 C-0.625 2.8125 -0.625 2.8125 0 0 Z " fill="#F0F0F0" transform="translate(445,411)"/>
<path d="M0 0 C0.33 0.66 0.66 1.32 1 2 C0.53980469 2.82757813 0.07960938 3.65515625 -0.39453125 4.5078125 C-2.47570652 9.03474849 -2.55775728 12.95219034 -2.6875 17.875 C-2.72166016 18.75414062 -2.75582031 19.63328125 -2.79101562 20.5390625 C-2.8729314 22.69227705 -2.93815579 24.84611551 -3 27 C-3.33 27 -3.66 27 -4 27 C-4.06058594 25.73542969 -4.12117188 24.47085937 -4.18359375 23.16796875 C-4.26800904 21.50780129 -4.35265655 19.84764563 -4.4375 18.1875 C-4.47681641 17.35412109 -4.51613281 16.52074219 -4.55664062 15.66210938 C-4.59853516 14.85966797 -4.64042969 14.05722656 -4.68359375 13.23046875 C-4.73858032 12.12288208 -4.73858032 12.12288208 -4.79467773 10.99291992 C-4.94842141 8.792505 -4.94842141 8.792505 -6 6 C-4.02 4.02 -2.04 2.04 0 0 Z " fill="#444444" transform="translate(284,399)"/>
<path d="M0 0 C0.99 0 1.98 0 3 0 C3 4.62 3 9.24 3 14 C2.01 14.33 1.02 14.66 0 15 C0 10.05 0 5.1 0 0 Z " fill="#F7F7F7" transform="translate(476,410)"/>
<path d="M0 0 C2 2 2 2 2 7 C-1.96 5.35 -5.92 3.7 -10 2 C-6.32653229 -0.44897847 -4.33643601 -0.31537716 0 0 Z " fill="#545454" transform="translate(500,406)"/>
<path d="M0 0 C2.62187494 1.04874998 3.79371361 1.64931313 5.25 4.125 C5.4975 4.74375 5.745 5.3625 6 6 C5.34 6.66 4.68 7.32 4 8 C1.375 7.625 1.375 7.625 -1 7 C-0.67 4.69 -0.34 2.38 0 0 Z " fill="#525252" transform="translate(525,410)"/>
<path d="M0 0 C1.65 0 3.3 0 5 0 C5.144375 0.804375 5.28875 1.60875 5.4375 2.4375 C5.74135249 4.92103706 5.74135249 4.92103706 7 6 C7.66 6.66 8.32 7.32 9 8 C8.67 8.99 8.34 9.98 8 11 C5.36 8.69 2.72 6.38 0 4 C0.99 3.67 1.98 3.34 3 3 C3 2.34 3 1.68 3 1 C2.01 0.67 1.02 0.34 0 0 Z " fill="#ECECEC" transform="translate(384,402)"/>
<path d="M0 0 C0.33 0.99 0.66 1.98 1 3 C1.66 3 2.32 3 3 3 C3 6.63 3 10.26 3 14 C2.01 13.67 1.02 13.34 0 13 C0 8.71 0 4.42 0 0 Z " fill="#383838" transform="translate(392,413)"/>
<path d="M0 0 C-1 2 -1 2 -3.06640625 2.8515625 C-4.30197266 3.23441406 -4.30197266 3.23441406 -5.5625 3.625 C-6.38878906 3.88539063 -7.21507812 4.14578125 -8.06640625 4.4140625 C-8.70449219 4.60742188 -9.34257812 4.80078125 -10 5 C-10.66 3.68 -11.32 2.36 -12 1 C-7.58774263 -0.47075246 -4.51718381 -1.36884358 0 0 Z " fill="#EBEAEB" transform="translate(342,399)"/>
<path d="M0 0 C0.99 0.99 1.98 1.98 3 3 C2.01 3.33 1.02 3.66 0 4 C0 9.94 0 15.88 0 22 C-0.66 22.33 -1.32 22.66 -2 23 C-2.66 22.34 -3.32 21.68 -4 21 C-3.34 21 -2.68 21 -2 21 C-1.93941406 19.73542969 -1.87882812 18.47085937 -1.81640625 17.16796875 C-1.73199096 15.50780129 -1.64734345 13.84764563 -1.5625 12.1875 C-1.52318359 11.35412109 -1.48386719 10.52074219 -1.44335938 9.66210938 C-1.40146484 8.85966797 -1.35957031 8.05722656 -1.31640625 7.23046875 C-1.27974854 6.49207764 -1.24309082 5.75368652 -1.20532227 4.99291992 C-1 3 -1 3 0 0 Z " fill="#5F5F5F" transform="translate(383,405)"/>
<path d="M0 0 C3.3 0 6.6 0 10 0 C6.39338934 1.80330533 3.91606575 2.46599103 0 3 C0 3.66 0 4.32 0 5 C-2.64 4.67 -5.28 4.34 -8 4 C-8 3.67 -8 3.34 -8 3 C-5.36 2.67 -2.72 2.34 0 2 C0 1.34 0 0.68 0 0 Z " fill="#E7E7E7" transform="translate(456,372)"/>
<path d="M0 0 C2.625 -0.1875 2.625 -0.1875 5 0 C4.875 1.8125 4.875 1.8125 4 4 C1.0625 5.6875 1.0625 5.6875 -2 7 C-2.99 7.495 -2.99 7.495 -4 8 C-2.87548273 5.0280615 -1.77706209 2.66559313 0 0 Z " fill="#ECECEC" transform="translate(444,401)"/>
<path d="M0 0 C1 3 1 3 -0.1875 6.0625 C-1.99216457 8.9873012 -2.82880497 9.90648447 -6 11 C-5.71125 10.46375 -5.4225 9.9275 -5.125 9.375 C-3.89275962 6.91472865 -3.89275962 6.91472865 -3 3.8125 C-2 1 -2 1 0 0 Z " fill="#373737" transform="translate(272,414)"/>
<path d="M0 0 C1.8871875 0.0309375 1.8871875 0.0309375 3.8125 0.0625 C3.4825 1.0525 3.1525 2.0425 2.8125 3.0625 C-0.4875 3.0625 -3.7875 3.0625 -7.1875 3.0625 C-7.1875 2.4025 -7.1875 1.7425 -7.1875 1.0625 C-4.43671116 0.14557039 -2.82801087 -0.04636083 0 0 Z " fill="#353535" transform="translate(529.1875,422.9375)"/>
<path d="M0 0 C1.98 0 3.96 0 6 0 C6 0.99 6 1.98 6 3 C5.01 3 4.02 3 3 3 C3 3.99 3 4.98 3 6 C2.01 6 1.02 6 0 6 C0 4.02 0 2.04 0 0 Z " fill="#383838" transform="translate(460,383)"/>
<path d="M0 0 C0.33 0.99 0.66 1.98 1 3 C0.34 3 -0.32 3 -1 3 C-1.12375 3.5775 -1.2475 4.155 -1.375 4.75 C-2 7 -2 7 -4 11 C-4.33 8.03 -4.66 5.06 -5 2 C-2 0 -2 0 0 0 Z " fill="#EAEAEA" transform="translate(306,409)"/>
<path d="M0 0 C1.98 0 3.96 0 6 0 C4.19587357 3.26460973 3.16605307 4.88929795 0 7 C0 4.69 0 2.38 0 0 Z " fill="#5A5A5A" transform="translate(435,406)"/>
<path d="M0 0 C2.31 0 4.62 0 7 0 C6.01 0.33 5.02 0.66 4 1 C4 1.66 4 2.32 4 3 C4.66 3.33 5.32 3.66 6 4 C4.68 4.99 3.36 5.98 2 7 C1.34 4.69 0.68 2.38 0 0 Z " fill="#F0F0F0" transform="translate(523,402)"/>
<path d="M0 0 C3.63 0.66 7.26 1.32 11 2 C10.67 2.66 10.34 3.32 10 4 C7.0625 4.75 7.0625 4.75 4 5 C2 3 2 3 0 0 Z " fill="#ECEBEC" transform="translate(456,397)"/>
<path d="M0 0 C1.32 0 2.64 0 4 0 C4 1.32 4 2.64 4 4 C1.69 4.33 -0.62 4.66 -3 5 C-1.125 1.125 -1.125 1.125 0 0 Z " fill="#3A3A3A" transform="translate(420,402)"/>
<path d="M0 0 C0.99 0.33 1.98 0.66 3 1 C2.01 3.97 1.02 6.94 0 10 C-0.33 10 -0.66 10 -1 10 C-1.02689216 8.52093108 -1.04634621 7.04172517 -1.0625 5.5625 C-1.07410156 4.73878906 -1.08570313 3.91507812 -1.09765625 3.06640625 C-1 1 -1 1 0 0 Z " fill="#F3F3F3" transform="translate(365,415)"/>
<path d="M0 0 C0.66 0.66 1.32 1.32 2 2 C1.625 5.625 1.625 5.625 1 9 C-0.32 7.35 -1.64 5.7 -3 4 C-2.01 2.68 -1.02 1.36 0 0 Z " fill="#414141" transform="translate(513,416)"/>
<path d="M0 0 C0.99 0.33 1.98 0.66 3 1 C2.01 2.98 1.02 4.96 0 7 C-2.97 6.505 -2.97 6.505 -6 6 C-5.38125 5.566875 -4.7625 5.13375 -4.125 4.6875 C-1.7802755 3.00259517 -1.7802755 3.00259517 0 0 Z " fill="#E4E4E4" transform="translate(265,417)"/>
<path d="M0 0 C1.485 0.99 1.485 0.99 3 2 C2.34 2 1.68 2 1 2 C1 6.95 1 11.9 1 17 C0.67 17 0.34 17 0 17 C-0.19386492 14.35448944 -0.38038267 11.70882217 -0.5625 9.0625 C-0.61857422 8.30775391 -0.67464844 7.55300781 -0.73242188 6.77539062 C-0.86176157 4.85254042 -0.93516912 2.92610452 -1 1 C-0.67 0.67 -0.34 0.34 0 0 Z " fill="#ECECEC" transform="translate(494,409)"/>
<path d="M0 0 C0.33 0 0.66 0 1 0 C1 4.29 1 8.58 1 13 C0.01 13.495 0.01 13.495 -1 14 C-1.5625 12.0625 -1.5625 12.0625 -2 10 C-1.67 9.67 -1.34 9.34 -1 9 C-0.76807135 7.48530552 -0.58784762 5.96245438 -0.4375 4.4375 C-0.35371094 3.61121094 -0.26992188 2.78492188 -0.18359375 1.93359375 C-0.12300781 1.29550781 -0.06242187 0.65742188 0 0 Z " fill="#ECECEC" transform="translate(267,392)"/>
<path d="M0 0 C2.53731364 1.26865682 2.78646846 2.49709121 4 5 C4.66 5.66 5.32 6.32 6 7 C4.68 7 3.36 7 2 7 C0 5 0 5 -0.125 2.375 C-0.08375 1.59125 -0.0425 0.8075 0 0 Z " fill="#ECECEC" transform="translate(307,412)"/>
<path d="M0 0 C0.33 0 0.66 0 1 0 C1.12375 1.11375 1.2475 2.2275 1.375 3.375 C1.6465813 7.03103677 1.6465813 7.03103677 4 9 C2.68 9.99 1.36 10.98 0 12 C0 8.04 0 4.08 0 0 Z " fill="#494949" transform="translate(287,411)"/>
<path d="M0 0 C0.66 0 1.32 0 2 0 C0.90931332 3.77545388 0.0916909 6.47043472 -3 9 C-3 7.35 -3 5.7 -3 4 C-2.01 3.67 -1.02 3.34 0 3 C0 2.01 0 1.02 0 0 Z " fill="#F8F8F8" transform="translate(536,404)"/>
<path d="M0 0 C0 0.99 0 1.98 0 3 C-1 4 -1 4 -3.5625 4.0625 C-4.7690625 4.0315625 -4.7690625 4.0315625 -6 4 C-6.33 3.01 -6.66 2.02 -7 1 C-5.5459375 1.0309375 -5.5459375 1.0309375 -4.0625 1.0625 C-1.12534105 1.35618499 -1.12534105 1.35618499 0 0 Z " fill="#373737" transform="translate(530,416)"/>
<path d="M0 0 C1.98 0 3.96 0 6 0 C5.67 0.99 5.34 1.98 5 3 C3.35 3 1.7 3 0 3 C0 2.01 0 1.02 0 0 Z " fill="#333333" transform="translate(404,423)"/>
<path d="M0 0 C0.66 0.99 1.32 1.98 2 3 C1.2884375 3.6496875 1.2884375 3.6496875 0.5625 4.3125 C-1.23686957 6.02309613 -1.23686957 6.02309613 -2 9 C-2.66 9 -3.32 9 -4 9 C-2.94124926 5.59687262 -1.99097846 2.98646769 0 0 Z " fill="#484848" transform="translate(268,417)"/>
<path d="M0 0 C-2.97 2.475 -2.97 2.475 -6 5 C-6 3.35 -6 1.7 -6 0 C-3 -1 -3 -1 0 0 Z " fill="#EEEEEE" transform="translate(281,403)"/>
</svg>
